<svg width="840" height="44" viewBox="0 0 840 44" fill="none" xmlns="http://www.w3.org/2000/svg">
<path d="M397.557 18.0652L397.626 18.3736L397.935 18.4431L413.725 22L397.935 25.5569L397.626 25.6264L397.557 25.9348L394 41.7247L390.443 25.9348L390.374 25.6264L390.065 25.5569L374.275 22L390.065 18.4431L390.374 18.3736L390.443 18.0652L394 2.27526L397.557 18.0652Z" fill="white" stroke="white"/>
<path d="M425.086 19.536L425.156 19.8444L425.464 19.9139L434.725 22L425.464 24.0861L425.156 24.1556L425.086 24.464L423 33.7247L420.914 24.464L420.844 24.1556L420.536 24.0861L411.275 22L420.536 19.9139L420.844 19.8444L420.914 19.536L423 10.2753L425.086 19.536Z" fill="white" stroke="white"/>
<path d="M368.086 19.536L368.156 19.8444L368.464 19.9139L377.725 22L368.464 24.0861L368.156 24.1556L368.086 24.464L366 33.7247L363.914 24.464L363.844 24.1556L363.536 24.0861L354.275 22L363.536 19.9139L363.844 19.8444L363.914 19.536L366 10.2753L368.086 19.536Z" fill="white" stroke="white"/>
<path d="M443.351 20.2714L443.42 20.5798L443.729 20.6493L449.725 22L443.729 23.3507L443.42 23.4202L443.351 23.7286L442 29.7247L440.649 23.7286L440.58 23.4202L440.271 23.3507L434.275 22L440.271 20.6493L440.58 20.5798L440.649 20.2714L442 14.2753L443.351 20.2714Z" fill="white" stroke="white"/>
<path d="M347.351 20.2714L347.42 20.5798L347.729 20.6493L353.725 22L347.729 23.3507L347.42 23.4202L347.351 23.7286L346 29.7247L344.649 23.7286L344.58 23.4202L344.271 23.3507L338.275 22L344.271 20.6493L344.58 20.5798L344.649 20.2714L346 14.2753L347.351 20.2714Z" fill="white" stroke="white"/>
<path d="M341 22L0 22" stroke="white"/>
<path d="M840 22H445" stroke="white"/>
</svg>
